# xmcd
#
# Track frame offsets:
#	150
#	31540
#	57555
#	83049
#	99685
#	110044
#	137189
#	163728
#	180112
#
# Disc length: 2684 seconds
#
# Revision: 1
# Processed by: cddbd v1.5.2PL0 Copyright (c) Steve Scherf et al.
# Submitted via: audiograbber 1.83.01
#
DISCID=6f0a7a09
DTITLE=Grateful Dead - 80-09-25 Warfield Theatre, San Francisco CA
DYEAR=1900
DGENRE=
TTITLE0=Bird Song
TTITLE1=All Around This World
TTITLE2=Dark Hollow
TTITLE3=Rosalie McFall
TTITLE4=Monkey and The Engineer
TTITLE5=It Must Have Been The Roses
TTITLE6=Jack-A-Roe
TTITLE7=Babe, It Ain't No Lie
TTITLE8=Ripple
EXTD=
EXTT0=
EXTT1=
EXTT2=
EXTT3=
EXTT4=
EXTT5=
EXTT6=
EXTT7=
EXTT8=
PLAYORDER=
